<mxfile host="app.diagrams.net" agent="Mozilla/5.0 (Windows NT 10.0; Win64; x64) AppleWebKit/537.36 (KHTML, like Gecko) Chrome/131.0.0.0 Safari/537.36" version="25.0.3">
  <diagram name="Halaman-1" id="vh4S6Tew1xSadd1nEJnK">
    <mxGraphModel dx="682" dy="365" grid="1" gridSize="10" guides="1" tooltips="1" connect="1" arrows="1" fold="1" page="1" pageScale="1" pageWidth="827" pageHeight="1169" math="0" shadow="0">
      <root>
        <mxCell id="0" />
        <mxCell id="1" parent="0" />
        <mxCell id="kvzompg7s9tfaMvVKFkW-9" style="edgeStyle=orthogonalEdgeStyle;rounded=0;orthogonalLoop=1;jettySize=auto;html=1;entryX=1;entryY=0.75;entryDx=0;entryDy=0;" parent="1" source="kvzompg7s9tfaMvVKFkW-1" target="kvzompg7s9tfaMvVKFkW-8" edge="1">
          <mxGeometry relative="1" as="geometry">
            <mxPoint x="250" y="40" as="targetPoint" />
            <Array as="points">
              <mxPoint x="274" y="70" />
              <mxPoint x="100" y="70" />
            </Array>
          </mxGeometry>
        </mxCell>
        <mxCell id="kvzompg7s9tfaMvVKFkW-10" value="Many" style="edgeLabel;html=1;align=center;verticalAlign=middle;resizable=0;points=[];" parent="kvzompg7s9tfaMvVKFkW-9" vertex="1" connectable="0">
          <mxGeometry x="0.2627" y="-1" relative="1" as="geometry">
            <mxPoint as="offset" />
          </mxGeometry>
        </mxCell>
        <mxCell id="kvzompg7s9tfaMvVKFkW-13" value="One" style="edgeLabel;html=1;align=center;verticalAlign=middle;resizable=0;points=[];" parent="kvzompg7s9tfaMvVKFkW-9" vertex="1" connectable="0">
          <mxGeometry x="-0.6134" y="2" relative="1" as="geometry">
            <mxPoint as="offset" />
          </mxGeometry>
        </mxCell>
        <mxCell id="kvzompg7s9tfaMvVKFkW-15" style="edgeStyle=orthogonalEdgeStyle;rounded=0;orthogonalLoop=1;jettySize=auto;html=1;" parent="1" source="kvzompg7s9tfaMvVKFkW-1" target="kvzompg7s9tfaMvVKFkW-7" edge="1">
          <mxGeometry relative="1" as="geometry">
            <Array as="points">
              <mxPoint x="412" y="280" />
              <mxPoint x="412" y="170" />
              <mxPoint x="530" y="170" />
            </Array>
          </mxGeometry>
        </mxCell>
        <mxCell id="kvzompg7s9tfaMvVKFkW-16" value="One" style="edgeLabel;html=1;align=center;verticalAlign=middle;resizable=0;points=[];" parent="kvzompg7s9tfaMvVKFkW-15" vertex="1" connectable="0">
          <mxGeometry x="-0.7391" y="-1" relative="1" as="geometry">
            <mxPoint as="offset" />
          </mxGeometry>
        </mxCell>
        <mxCell id="kvzompg7s9tfaMvVKFkW-17" value="Many" style="edgeLabel;html=1;align=center;verticalAlign=middle;resizable=0;points=[];" parent="kvzompg7s9tfaMvVKFkW-15" vertex="1" connectable="0">
          <mxGeometry x="0.3825" y="-1" relative="1" as="geometry">
            <mxPoint as="offset" />
          </mxGeometry>
        </mxCell>
        <mxCell id="kvzompg7s9tfaMvVKFkW-1" value="Id(PK)&lt;div&gt;Username&lt;/div&gt;&lt;div&gt;Password&lt;/div&gt;&lt;div&gt;Email&lt;/div&gt;&lt;div&gt;Created_time&lt;/div&gt;" style="rounded=0;whiteSpace=wrap;html=1;" parent="1" vertex="1">
          <mxGeometry x="214" y="230" width="120" height="100" as="geometry" />
        </mxCell>
        <mxCell id="kvzompg7s9tfaMvVKFkW-2" value="id_record(PK)&lt;div&gt;user_id(FK)&lt;br&gt;&lt;div&gt;username&lt;div&gt;&amp;nbsp;name&lt;/div&gt;&lt;div&gt;&lt;span class=&quot;hljs-comment&quot;&gt;&amp;nbsp;record_time&lt;/span&gt;&lt;/div&gt;&lt;div&gt;&amp;nbsp;pregnancies&lt;/div&gt;&lt;div&gt;&amp;nbsp;glucose&lt;/div&gt;&lt;div&gt;&lt;span style=&quot;background-color: initial;&quot;&gt;&amp;nbsp;blood_pressure&lt;/span&gt;&lt;/div&gt;&lt;div&gt;&lt;span style=&quot;background-color: initial;&quot;&gt;&amp;nbsp;skin_thickness insulin&lt;/span&gt;&lt;/div&gt;&lt;div&gt;&lt;span style=&quot;background-color: initial;&quot;&gt;bmi diabetes_pedigree_function&amp;nbsp;&lt;/span&gt;&lt;/div&gt;&lt;div&gt;&lt;span style=&quot;background-color: initial;&quot;&gt;&amp;nbsp;age&lt;/span&gt;&lt;/div&gt;&lt;div&gt;&lt;span style=&quot;background-color: initial;&quot;&gt;&amp;nbsp; &amp;nbsp; &amp;nbsp; &amp;nbsp; &amp;nbsp; &amp;nbsp;outcome&amp;nbsp; &amp;nbsp; &amp;nbsp; &amp;nbsp; &amp;nbsp;&amp;nbsp;&lt;/span&gt;&lt;/div&gt;&lt;/div&gt;&lt;/div&gt;" style="rounded=0;whiteSpace=wrap;html=1;" parent="1" vertex="1">
          <mxGeometry x="180" y="450" width="170" height="210" as="geometry" />
        </mxCell>
        <mxCell id="kvzompg7s9tfaMvVKFkW-3" value="Id(PK)&lt;div&gt;Username&lt;/div&gt;&lt;div&gt;Content&lt;/div&gt;" style="rounded=0;whiteSpace=wrap;html=1;" parent="1" vertex="1">
          <mxGeometry x="30" y="120" width="120" height="60" as="geometry" />
        </mxCell>
        <mxCell id="kvzompg7s9tfaMvVKFkW-4" value="Id(PK)&lt;div&gt;Username&lt;/div&gt;&lt;div&gt;Login_ttime&lt;/div&gt;&lt;div&gt;Logout_time&lt;/div&gt;" style="rounded=0;whiteSpace=wrap;html=1;" parent="1" vertex="1">
          <mxGeometry x="490" y="250" width="120" height="60" as="geometry" />
        </mxCell>
        <mxCell id="kvzompg7s9tfaMvVKFkW-5" value="User" style="text;html=1;align=center;verticalAlign=middle;whiteSpace=wrap;rounded=0;" parent="1" vertex="1">
          <mxGeometry x="194" y="200" width="60" height="30" as="geometry" />
        </mxCell>
        <mxCell id="kvzompg7s9tfaMvVKFkW-6" value="record" style="text;html=1;align=center;verticalAlign=middle;whiteSpace=wrap;rounded=0;" parent="1" vertex="1">
          <mxGeometry x="170" y="420" width="60" height="30" as="geometry" />
        </mxCell>
        <mxCell id="kvzompg7s9tfaMvVKFkW-7" value="User_sessions" style="text;html=1;align=center;verticalAlign=middle;whiteSpace=wrap;rounded=0;" parent="1" vertex="1">
          <mxGeometry x="490" y="220" width="80" height="30" as="geometry" />
        </mxCell>
        <mxCell id="kvzompg7s9tfaMvVKFkW-8" value="Feedback" style="text;html=1;align=center;verticalAlign=middle;whiteSpace=wrap;rounded=0;" parent="1" vertex="1">
          <mxGeometry x="20" y="90" width="80" height="30" as="geometry" />
        </mxCell>
        <mxCell id="kvzompg7s9tfaMvVKFkW-11" style="edgeStyle=orthogonalEdgeStyle;rounded=0;orthogonalLoop=1;jettySize=auto;html=1;entryX=0.558;entryY=0.003;entryDx=0;entryDy=0;entryPerimeter=0;" parent="1" source="kvzompg7s9tfaMvVKFkW-1" target="kvzompg7s9tfaMvVKFkW-2" edge="1">
          <mxGeometry relative="1" as="geometry" />
        </mxCell>
        <mxCell id="kvzompg7s9tfaMvVKFkW-12" value="One" style="edgeLabel;html=1;align=center;verticalAlign=middle;resizable=0;points=[];" parent="kvzompg7s9tfaMvVKFkW-11" vertex="1" connectable="0">
          <mxGeometry x="-0.282" y="1" relative="1" as="geometry">
            <mxPoint as="offset" />
          </mxGeometry>
        </mxCell>
        <mxCell id="kvzompg7s9tfaMvVKFkW-14" value="Many" style="edgeLabel;html=1;align=center;verticalAlign=middle;resizable=0;points=[];" parent="kvzompg7s9tfaMvVKFkW-11" vertex="1" connectable="0">
          <mxGeometry x="0.1799" y="2" relative="1" as="geometry">
            <mxPoint as="offset" />
          </mxGeometry>
        </mxCell>
      </root>
    </mxGraphModel>
  </diagram>
</mxfile>
